<?xml version="1.0" encoding="utf-8"?>
<!-- Generator: Adobe Illustrator 27.9.0, SVG Export Plug-In . SVG Version: 6.00 Build 0)  -->
<svg version="1.1" id="Layer_1" xmlns="http://www.w3.org/2000/svg" xmlns:xlink="http://www.w3.org/1999/xlink" x="0px" y="0px"
	 viewBox="0 0 400 400" style="enable-background:new 0 0 400 400;" xml:space="preserve">
<style type="text/css">
	.st0{fill:#18181B;}
	.st1{fill:#3B82F6;}
</style>
<path class="st0" d="M359.5,358.6V147.1h-29.8v158.4h-33.6c5.2-8.1,2.8-14.9,3.4-26.8h5c8.2,0,14.9-6.7,14.9-14.9
	c-2-17.2,7.5-46.2-17.9-65.3h3c8.2,0,14.9-6.7,14.9-14.9s-6.7-14.9-14.9-14.9h-21.8l-13.3-40.4H129.6l-13.3,40.4H94.4
	c-8.2,0-14.9,6.7-14.9,14.9s6.7,14.9,14.9,14.9h3c-25.5,19.1-15.8,47.3-17.9,65.3c0,8.2,6.7,14.9,14.9,14.9h5
	c0.6,11.8-1.8,18.7,3.4,26.8H69.2V147.1H39.4v211.4h-9.6v9.9h339.3v-9.9L359.5,358.6L359.5,358.6z M59.3,358.6h-9.9V157.1h9.9
	C59.3,157.1,59.3,358.6,59.3,358.6z M304.5,178.6c6.6,0,6.6,9.9,0,9.9h-15.3l-3.3-9.9H304.5z M136.7,138.2h125.4l16.6,50.4H120.1
	L136.7,138.2z M94.4,188.6c-6.6,0-6.6-9.9,0-9.9H113l-3.3,9.9H94.4z M94.4,268.8c-2.7,0-5-2.2-5-5v-29.5c0-23.9,21.3-31.9,25.4-35.8
	H284c4.2,4,25.4,11.9,25.4,35.8v29.5c0,6.7-8.5,4.6-9.9,5C278.5,268.8,119.5,268.8,94.4,268.8L94.4,268.8z M289.6,278.7v15.2
	c0,6.4-5.2,11.6-11.6,11.6s-11.6-5.2-11.6-11.6v-15.2H289.6z M259.8,305.5H139c5.2-8.1,2.8-14.9,3.4-26.8h114
	C257,290.5,254.6,297.4,259.8,305.5z M132.5,278.7v15.2c0,6.4-5.2,11.6-11.6,11.6s-11.6-5.2-11.6-11.6v-15.2H132.5z M329.6,358.6
	H69.2v-9.9h18l6.6-13.3H305l6.6,13.3h18V358.6z M329.6,338.7h-11.8l-6.6-13.3H87.7L81,338.7H69.2v-23.2h260.5v23.2H329.6z
	 M349.5,358.6h-9.9c0-13.8,0-194.7,0-201.5h9.9V358.6z"/>
<path class="st1" d="M151.4,253.8c0-15.2-12.3-27.5-27.5-27.5h-8.3c-8.9,0-16.2,7.3-16.2,16.2s7.3,16.2,16.2,16.2h35.8V253.8z
	 M115.6,248.9c-8.3,0-8.3-12.6,0-12.6c2.5,0.6,20.4-3.6,25.1,12.6H115.6z"/>
<path class="st1" d="M299.5,242.6c0-8.9-7.3-16.2-16.2-16.2H275c-15.2,0-27.5,12.3-27.5,27.5v5h35.8
	C292.2,258.8,299.5,251.5,299.5,242.6z M283.3,236.3c8.3,0,8.3,12.6,0,12.6h-25.1C262.9,232.7,280.7,236.9,283.3,236.3z"/>
<path class="st1" d="M163,248.9h72.9v9.9H163V248.9z"/>
<path class="st1" d="M184.2,226.4h9.9v9.9h-9.9V226.4z"/>
<path class="st1" d="M163,226.4h9.9v9.9H163V226.4z"/>
<path class="st1" d="M205.4,226.4h9.9v9.9h-9.9V226.4z"/>
<path class="st1" d="M226.6,226.4h9.3v9.9h-9.3V226.4z"/>
<path class="st1" d="M163.4,173.7l32.2-25.5l6.2,7.8l-32.2,25.5L163.4,173.7z"/>
<path class="st1" d="M197.1,173.7l32.2-25.5l6.2,7.8l-32.2,25.5L197.1,173.7z"/>
<path class="st0" d="M30.6,97.5c1.1,1.4,11.3,39.7,52.4,39.7c18.1,0,35.1-9.3,45-24.4h211.7c16.2,0,29.3-13.2,29.3-29.3
	s-13.2-29.3-29.3-29.3H127.9C104.5,18.3,50.3,23,33.5,62.7l-2.9,6.9h53l8,14l-8,14L30.6,97.5z M103,83.5L89.4,59.6h-43
	c17.7-27.2,58.2-26.2,74.5,2l1.4,2.5h217.3c10.7,0,19.4,8.7,19.4,19.4s-8.7,19.4-19.4,19.4H122.3l-1.4,2.5
	c-16.3,28.2-56.8,29.3-74.5,2h43L103,83.5z"/>
<path class="st0" d="M323.2,78.6h19.9v9.9h-19.9V78.6z"/>
</svg>
