<?xml version="1.0" encoding="utf-8"?>
<!-- Generator: Adobe Illustrator 27.9.0, SVG Export Plug-In . SVG Version: 6.00 Build 0)  -->
<svg version="1.1" id="Layer_1" xmlns="http://www.w3.org/2000/svg" xmlns:xlink="http://www.w3.org/1999/xlink" x="0px" y="0px"
	 viewBox="0 0 499.1 400" style="enable-background:new 0 0 499.1 400;" xml:space="preserve">
<style type="text/css">
	.st0{fill:#18181B;}
	.st1{fill:#3B82F6;}
</style>
<path class="st0" d="M99.4,275.1L99.4,275.1L99.4,275.1l21.1,21.1v56.3c0,16.1,13.1,29.2,29.2,29.2h234c16.1,0,29.2-13.1,29.2-29.2
	V206.2c0-15.3-11.9-28-27.2-29c6.1-11.3,4-25.3-5-34.4l-74.5-74.5l0-0.1h-0.1l-28.8-28.9c-11.4-11.4-29.9-11.4-41.3,0L70.6,204.8
	c-11.4,11.5-11.4,29.9,0,41.4L99.4,275.1z M277.4,55.8l16.5,16.5L189.3,176.9h-33.1L277.4,55.8z M120.5,245.7l-17,17L87,246.1
	l33.5-33.5V245.7z M111.8,270.9l8.7-8.7v17.4L111.8,270.9z M401.3,206.2v146.2c0,9.7-7.9,17.5-17.5,17.5l0,0h-234
	c-9.7,0-17.5-7.9-17.5-17.5l0,0V206.2c0-9.7,7.9-17.5,17.5-17.5h234C393.4,188.6,401.3,196.5,401.3,206.2z M372.5,175.8l-1.1,1.1
	H205.8l96.3-96.4l70.4,70.4C379.4,157.9,379.4,169,372.5,175.8z M78.9,213.1L244.3,47.5c6.9-6.6,17.8-6.6,24.8,0L136.2,180.4
	c-5.2,2.7-9.4,7-12.1,12.1l-45.3,45.3C72.1,230.9,72.1,219.9,78.9,213.1z"/>
<path class="st1" d="M155.6,253h35.1c6.5,0,11.7-5.2,11.7-11.7v-23.4c0-6.5-5.2-11.7-11.7-11.7h-35.1c-6.5,0-11.7,5.2-11.7,11.7
	v23.4C143.9,247.7,149.2,253,155.6,253z M155.6,217.9h35.1v23.4h-35.1V217.9z"/>
<path class="st1" d="M149.8,288.1c3.2,0,5.8-2.6,5.8-5.8v-11.7c0-3.2-2.6-5.8-5.8-5.8s-5.8,2.6-5.8,5.8v11.7
	C143.9,285.5,146.6,288.1,149.8,288.1z"/>
<path class="st1" d="M173.2,264.7c-3.2,0-5.8,2.6-5.8,5.8v11.7c0,3.2,2.6,5.8,5.8,5.8c3.2,0,5.8-2.6,5.8-5.8v-11.7
	C179,267.3,176.4,264.7,173.2,264.7z"/>
<path class="st1" d="M190.7,270.5v11.7c0,3.2,2.6,5.8,5.8,5.8c3.2,0,5.8-2.6,5.8-5.8v-11.7c0-3.2-2.6-5.8-5.8-5.8
	C193.3,264.7,190.7,267.3,190.7,270.5z"/>
<path class="st1" d="M220,264.7c-3.2,0-5.8,2.6-5.8,5.8v11.7c0,3.2,2.6,5.8,5.8,5.8c3.2,0,5.8-2.6,5.8-5.8v-11.7
	C225.8,267.3,223.2,264.7,220,264.7z"/>
<path class="st1" d="M243.4,288.1c3.2,0,5.8-2.6,5.8-5.8v-11.7c0-3.2-2.6-5.8-5.8-5.8s-5.8,2.6-5.8,5.8v11.7
	C237.5,285.5,240.1,288.1,243.4,288.1z"/>
<path class="st1" d="M290.2,264.7c-3.2,0-5.8,2.6-5.8,5.8v11.7c0,3.2,2.6,5.8,5.8,5.8s5.8-2.6,5.8-5.8v-11.7
	C296,267.3,293.4,264.7,290.2,264.7z"/>
<path class="st1" d="M313.6,264.7c-3.2,0-5.8,2.6-5.8,5.8v11.7c0,3.2,2.6,5.8,5.8,5.8s5.8-2.6,5.8-5.8v-11.7
	C319.4,267.3,316.8,264.7,313.6,264.7z"/>
<path class="st1" d="M337,264.7c-3.2,0-5.8,2.6-5.8,5.8v11.7c0,3.2,2.6,5.8,5.8,5.8s5.8-2.6,5.8-5.8v-11.7
	C342.8,267.3,340.2,264.7,337,264.7z"/>
<path class="st1" d="M360.4,264.7c-3.2,0-5.8,2.6-5.8,5.8v11.7c0,3.2,2.6,5.8,5.8,5.8s5.8-2.6,5.8-5.8v-11.7
	C366.2,267.3,363.6,264.7,360.4,264.7z"/>
<path class="st0" d="M173.2,299.8h-23.4c-3.2,0-5.8,2.6-5.8,5.8s2.6,5.8,5.8,5.8h23.4c3.2,0,5.8-2.6,5.8-5.8
	S176.4,299.8,173.2,299.8z"/>
<path class="st0" d="M220,299.8h-23.4c-3.2,0-5.8,2.6-5.8,5.8s2.6,5.8,5.8,5.8H220c3.2,0,5.8-2.6,5.8-5.8S223.2,299.8,220,299.8z"/>
<path class="st0" d="M173.2,323.2h-23.4c-3.2,0-5.8,2.6-5.8,5.8s2.6,5.8,5.8,5.8h23.4c3.2,0,5.8-2.6,5.8-5.8
	S176.4,323.2,173.2,323.2z"/>
<path class="st0" d="M220,323.2h-23.4c-3.2,0-5.8,2.6-5.8,5.8s2.6,5.8,5.8,5.8H220c3.2,0,5.8-2.6,5.8-5.8S223.2,323.2,220,323.2z"/>
<path class="st0" d="M266.8,299.8h-23.4c-3.2,0-5.8,2.6-5.8,5.8s2.6,5.8,5.8,5.8h23.4c3.2,0,5.8-2.6,5.8-5.8S270,299.8,266.8,299.8z
	"/>
</svg>
