<?xml version="1.0" encoding="utf-8"?>
<!-- Generator: Adobe Illustrator 27.9.0, SVG Export Plug-In . SVG Version: 6.00 Build 0)  -->
<svg version="1.1" id="Layer_1" xmlns="http://www.w3.org/2000/svg" xmlns:xlink="http://www.w3.org/1999/xlink" x="0px" y="0px"
	 viewBox="0 0 400 400" style="enable-background:new 0 0 400 400;" xml:space="preserve">
<style type="text/css">
	.st0{fill:#3B82F6;}
	.st1{fill:#18181B;}
</style>
<path class="st0" d="M185.5,158.6c-0.9-0.3-1.7-0.6-2.5-0.8c-2.7-0.9-4.7-1.6-5.6-2.5c-0.9-1-1.2-2.2-0.9-3.3c0.2-0.7,0.7-1.6,2-2
	c2.9-0.9,4.7,0.8,5,1.1c1.9,2,5,2.1,7,0.2c2-1.9,2.1-5,0.2-7c-1.3-1.4-3.3-2.8-5.7-3.6v-2.4c0-2.7-2.2-4.9-4.9-4.9s-4.9,2.2-4.9,4.9
	v2.5c-3.9,1.4-6.9,4.5-8.1,8.5c-1.3,4.3-0.2,9,2.9,12.5c2.6,3,6.1,4.2,9.9,5.4c0.7,0.2,1.5,0.5,2.3,0.8c2.6,0.9,2.9,2.8,2.6,4.2
	c-0.3,2-2,4.2-4.9,4.2c-3.3,0-4.2-0.1-6.7-1.7c-2.3-1.5-5.3-0.9-6.8,1.4c-1.5,2.3-0.9,5.3,1.4,6.8c2.8,1.8,5,2.7,7.4,3.1v1.9
	c0,2.7,2.2,4.9,4.9,4.9s4.9-2.2,4.9-4.9v-2.5c5.3-2,8.7-6.7,9.5-11.5C195.6,166.9,192,160.9,185.5,158.6z"/>
<path class="st0" d="M180.1,114.8c-26.6,0-48.2,21.6-48.2,48.2s21.6,48.2,48.2,48.2s48.2-21.6,48.2-48.2S206.7,114.8,180.1,114.8z
	 M180.1,201.2c-21.1,0-38.3-17.2-38.3-38.3s17.2-38.3,38.3-38.3s38.3,17.2,38.3,38.3C218.4,184.1,201.3,201.2,180.1,201.2z"/>
<path class="st1" d="M158.4,341.8h95.9c2,0,3.9-0.8,5.3-2.2c1.4-1.4,2.2-3.3,2.2-5.3V313c0-4.2-3.4-7.6-7.6-7.6h-95.9
	c-4.2,0-7.6,3.4-7.6,7.6v21.2C150.9,338.4,154.3,341.8,158.4,341.8z M160.7,315.3H252V332h-91.3V315.3z"/>
<path class="st1" d="M173.7,240.7c2.7,0,4.9-2.2,4.9-4.9s-2.2-4.9-4.9-4.9h-18.1c-2.7,0-4.9,2.2-4.9,4.9v42.9c0,2.7,2.2,4.9,4.9,4.9
	h18.1c2.7,0,4.9-2.2,4.9-4.9c0-2.7-2.2-4.9-4.9-4.9h-13.2v-11.6h11.1c2.7,0,4.9-2.2,4.9-4.9c0-2.7-2.2-4.9-4.9-4.9h-11.1v-11.6h13.2
	V240.7z"/>
<path class="st1" d="M108.5,230.8c-2.7,0-4.9,2.2-4.9,4.9v42.9c0,2.7,2.2,4.9,4.9,4.9H121h0.1c12.7-0.2,21.8-11.3,21.8-26.4
	c0-15.8-9-26.4-22.3-26.4L108.5,230.8L108.5,230.8z M133.1,257.2c0,7.8-3.8,16.4-12.1,16.5h-7.5v-33.1h7.2
	C129.8,240.7,133.1,249.2,133.1,257.2z"/>
<path class="st1" d="M203.7,231.6h-12.5c-2.7,0-4.9,2.2-4.9,4.9v19.8l0,0v23.2c0,2.7,2.2,4.9,4.9,4.9h14.7c9.1,0,16.5-7.4,16.5-16.5
	c0-4.4-1.7-8.5-4.8-11.7c-0.5-0.5-1.1-1-1.6-1.4c1.6-2.4,2.6-5.3,2.6-8.4C218.6,238.2,211.9,231.6,203.7,231.6z M196.2,241.5h7.6
	c2.7,0,5,2.2,5,5c0,2.7-2.2,5-5,5h-7.6V241.5z M205.9,274.5h-9.7v-13.3h7.6h2.2c1.8,0,3.4,0.7,4.7,1.9c1.3,1.3,1.9,2.9,1.9,4.7
	C212.6,271.6,209.6,274.5,205.9,274.5z"/>
<path class="st1" d="M251.8,230.8H228c-2.7,0-4.9,2.2-4.9,4.9s2.2,4.9,4.9,4.9h6.9v38c0,2.7,2.2,4.9,4.9,4.9s4.9-2.2,4.9-4.9v-38h7
	c2.7,0,4.9-2.2,4.9-4.9S254.5,230.8,251.8,230.8z"/>
<path class="st1" d="M357,200l-10.5-18.2c-0.8-1.6-2.5-2.6-4.4-2.6c-2.7,0-4.9,2.2-4.9,4.9c0,0.9,0.2,1.7,0.7,2.5l10.6,18.3
	c0.4,0.7,0.2,1.3,0,1.6s-0.6,0.8-1.4,0.8H241.8c-0.8,0-1.2-0.5-1.4-0.8s-0.4-0.9,0-1.6l52.6-91.1c0.4-0.7,1.1-0.8,1.4-0.8
	c0.4,0,1,0.1,1.4,0.8l30.5,52.8c1.4,2.4,4.4,3.2,6.7,1.8c2.4-1.4,3.2-4.4,1.8-6.7l-27-46.7c0-0.1,0-0.1,0-0.2v-44
	c0-4.3-3.5-7.8-7.8-7.8h-67c-1.4-6.7-7.4-11.8-14.5-11.8h-18.9l0,0c0-10.8-8.7-19.5-19.5-19.5s-19.5,8.7-19.5,19.5l0,0h-18.9
	c-7.1,0-13.1,5.1-14.5,11.8h-28c-4.3,0-7.8,3.5-7.8,7.8v11.8H79.7c-4.3,0-7.8,3.5-7.8,7.8v135.5c0,2.7,2.2,4.9,4.9,4.9
	c2.7,0,4.9-2.2,4.9-4.9V92.5h45.2v3.4c0,4.2,3.4,7.6,7.6,7.6H149c2.7,0,4.9-2.2,4.9-4.9s-2.2-4.9-4.9-4.9h-12.2V66
	c0-2.7,2.2-4.9,4.9-4.9h76.8c2.7,0,4.9,2.2,4.9,4.9v27.5h-51.5c-2.7,0-4.9,2.2-4.9,4.9s2.2,4.9,4.9,4.9h53.8c4.2,0,7.6-3.4,7.6-7.6
	v-3.4h45.2v26.8l-46.6,80.8c-2.1,3.6-2.1,7.9,0,11.5s5.8,5.7,9.9,5.7h36.7v83.6c0,2.7,2.2,4.9,4.9,4.9c2.7,0,4.9-2.2,4.9-4.9v-83.6
	h9.7v121.4h-9.7v-14.8c0-2.7-2.2-4.9-4.9-4.9c-2.7,0-4.9,2.2-4.9,4.9V358H135c-0.2,0-0.3,0-0.5,0v-47.8c0-2.7-2.2-4.9-4.9-4.9H81.8
	c0-0.2,0-0.3,0-0.5v-56.1c0-2.7-2.2-4.9-4.9-4.9c-2.7,0-4.9,2.2-4.9,4.9v56.1c0,4.7,1.9,9.4,5.3,12.8l45,45.1
	c3.4,3.4,8,5.3,12.8,5.3h145.6c4.3,0,7.8-3.5,7.8-7.8v-11.8h11.8c4.3,0,7.8-3.5,7.8-7.8V217.3H347c4.2,0,7.9-2.1,10-5.7
	C359.1,207.9,359.1,203.6,357,200z M101.3,82.6v-9.7h25.6v9.7H101.3z M170.5,51.2c0-5.3,4.3-9.6,9.6-9.6s9.6,4.3,9.6,9.6l0,0
	L170.5,51.2L170.5,51.2z M233.3,82.6v-9.7H298v30.8c-1.1-0.4-2.4-0.6-3.6-0.6c-2.2,0-4.3,0.6-6.1,1.7V90.4c0-4.3-3.5-7.8-7.8-7.8
	H233.3z M88.7,315.3h35.9v35.9L88.7,315.3z"/>
<path class="st1" d="M299.3,145.7c0-2.7-2.2-4.9-4.9-4.9c-2.7,0-4.9,2.2-4.9,4.9v22.7c0,2.7,2.2,4.9,4.9,4.9c2.7,0,4.9-2.2,4.9-4.9
	V145.7z"/>
<path class="st1" d="M298.5,187c-0.2-0.3-0.4-0.5-0.6-0.7s-0.5-0.4-0.7-0.6c-0.3-0.2-0.6-0.3-0.9-0.5c-0.3-0.1-0.6-0.2-0.9-0.3
	c-0.6-0.1-1.3-0.1-1.9,0c-0.3,0.1-0.6,0.2-0.9,0.3s-0.6,0.3-0.8,0.5c-0.3,0.2-0.5,0.4-0.7,0.6c-0.2,0.2-0.4,0.5-0.6,0.7
	c-0.2,0.3-0.3,0.6-0.5,0.9c-0.1,0.3-0.2,0.6-0.3,0.9c-0.1,0.3-0.1,0.6-0.1,1c0,0.3,0,0.6,0.1,1c0.1,0.3,0.2,0.6,0.3,0.9
	c0.1,0.3,0.3,0.6,0.5,0.9c0.2,0.3,0.4,0.5,0.6,0.7s0.5,0.4,0.7,0.6c0.3,0.2,0.6,0.3,0.8,0.5c0.3,0.1,0.6,0.2,0.9,0.3s0.6,0.1,1,0.1
	c0.3,0,0.6,0,1-0.1c0.3-0.1,0.6-0.2,0.9-0.3s0.6-0.3,0.9-0.5s0.5-0.4,0.7-0.6c0.2-0.2,0.4-0.5,0.6-0.7c0.2-0.3,0.3-0.6,0.5-0.9
	c0.1-0.3,0.2-0.6,0.3-0.9c0.1-0.3,0.1-0.6,0.1-1c0-0.3,0-0.7-0.1-1s-0.2-0.6-0.3-0.9C298.8,187.6,298.7,187.3,298.5,187z"/>
</svg>
