<?xml version="1.0" encoding="utf-8"?>
<!-- Generator: Adobe Illustrator 27.9.0, SVG Export Plug-In . SVG Version: 6.00 Build 0)  -->
<svg version="1.1" id="Layer_1" xmlns="http://www.w3.org/2000/svg" xmlns:xlink="http://www.w3.org/1999/xlink" x="0px" y="0px"
	 viewBox="0 0 400 400" style="enable-background:new 0 0 400 400;" xml:space="preserve">
<style type="text/css">
	.st0{fill:#18181B;}
	.st1{fill:#3B82F6;}
</style>
<path class="st0" d="M286.7,316.6l10.6-10.6c4.7-4.7,7.3-11,7.3-17.6c0-6.7-2.6-12.9-7.3-17.6l-37.6-37.6c-4.7-4.7-11-7.3-17.6-7.3
	c-6.7,0-12.9,2.6-17.6,7.3l-14.1,14.1c-20.8,20.8-30.1,19.3-37.2,14.6c-8.3-5.5-49.5-46.7-55-55c-4.7-7-6.1-16.4,14.6-37.2
	l14.1-14.1c4.7-4.7,7.3-11,7.3-17.6c0-6.7-2.6-12.9-7.3-17.6l-37.6-37.6c-4.7-4.7-11-7.3-17.6-7.3S78.7,78,74,82.7L59.9,96.8
	c-15.2,15.2-24.2,30.1-27.6,45.7c-3.1,14.3-1.4,28.9,5.3,44.4c11.7,27.3,37.2,54.1,69.3,86.2s58.9,57.6,86.2,69.3
	c10.5,4.5,20.6,6.8,30.5,6.8c4.7,0,9.3-0.5,13.9-1.5c14.4-3.1,28.2-11.1,42.1-24.1l10.8,10.8c5.2,5.2,5.1,11.8,3.2,16.3
	s-6.5,9.2-13.8,9.2H77c-4.6,0-8.3-3.7-8.3-8.3s3.7-8.3,8.3-8.3h37.2c10.1,0,18.3-8.2,18.3-18.3c0-10.1-8.2-18.3-18.3-18.3H50.4v10
	h63.8c4.6,0,8.3,3.7,8.3,8.3s-3.7,8.3-8.3,8.3H77c-10.1,0-18.3,8.2-18.3,18.3c0,10.1,8.2,18.3,18.3,18.3h202.9
	c10.3,0,19.1-5.9,23-15.4s1.9-19.9-5.4-27.2L286.7,316.6z M231.4,240.2c2.8-2.8,6.6-4.4,10.6-4.4s7.8,1.6,10.6,4.4l37.6,37.6
	c2.8,2.8,4.4,6.6,4.4,10.6s-1.6,7.8-4.4,10.6l-10.6,10.6l-58.8-58.8L231.4,240.2z M81,89.8c2.8-2.8,6.6-4.4,10.6-4.4
	s7.8,1.6,10.6,4.4l37.6,37.6c2.8,2.8,4.4,6.6,4.4,10.6s-1.6,7.8-4.4,10.6l-10.6,10.6l-58.8-58.8L81,89.8z M235.3,338
	c-12.2,2.7-24.8,1.1-38.3-4.7c-25.7-11-51.7-35.9-83.1-67.2c-31.4-31.4-56.2-57.4-67.2-83.1c-5.8-13.6-7.3-26.1-4.7-38.4
	c2.7-12.5,9.8-24.7,21.4-37.2l58.8,58.8c-17.4,18.6-21.2,32.9-12.4,46.2c6.2,9.4,48.4,51.6,57.8,57.8c13.2,8.8,27.6,5,46.2-12.4
	l58.8,58.8C260,328.2,247.8,335.3,235.3,338z"/>
<rect x="30.4" y="306.8" class="st0" width="10" height="10"/>
<path class="st1" d="M331.9,169v-42c0-32.1-26.1-58.2-58.2-58.2s-58.2,26.1-58.2,58.2v42c-11.4,2.3-19.9,12.4-19.9,24.4v18.3h156.2
	v-18.3C351.9,181.4,343.3,171.3,331.9,169z M225.6,127c0-26.6,21.6-48.2,48.2-48.2S322,100.4,322,127v41.6h-43.2v-17.2
	c9.5-2.3,16.6-10.8,16.6-21c0-11.9-9.7-21.6-21.6-21.6s-21.6,9.7-21.6,21.6c0,10.2,7.1,18.8,16.6,21v17.2h-43.2L225.6,127L225.6,127
	z M273.8,141.9c-6.4,0-11.6-5.2-11.6-11.6s5.2-11.6,11.6-11.6s11.6,5.2,11.6,11.6C285.4,136.7,280.2,141.9,273.8,141.9z
	 M341.9,201.7H205.6v-8.3c0-8.2,6.7-15,15-15H327c8.2,0,15,6.7,15,15v8.3H341.9z"/>
<rect x="344.2" y="122" class="st1" width="26.6" height="10"/>
<rect x="176.7" y="122" class="st1" width="26.6" height="10"/>
<rect x="333" y="80.1" transform="matrix(0.866 -0.5 0.5 0.866 3.8478 184.5593)" class="st1" width="26.6" height="10"/>
<rect x="302.4" y="49.4" transform="matrix(0.5 -0.866 0.866 0.5 110.7464 300.5524)" class="st1" width="26.6" height="10"/>
<rect x="268.8" y="29.9" class="st1" width="10" height="26.6"/>
<rect x="226.9" y="41.1" transform="matrix(0.866 -0.5 0.5 0.866 3.8734 123.2329)" class="st1" width="10" height="26.6"/>
<rect x="196.2" y="71.8" transform="matrix(0.5 -0.866 0.866 0.5 26.9105 216.8233)" class="st1" width="10" height="26.6"/>
</svg>
