<?xml version="1.0" encoding="utf-8"?>
<!-- Generator: Adobe Illustrator 27.9.0, SVG Export Plug-In . SVG Version: 6.00 Build 0)  -->
<svg version="1.1" id="Layer_1" xmlns="http://www.w3.org/2000/svg" xmlns:xlink="http://www.w3.org/1999/xlink" x="0px" y="0px"
	 viewBox="0 0 499.1 400" style="enable-background:new 0 0 499.1 400;" xml:space="preserve">
<style type="text/css">
	.st0{fill:#18181B;}
	.st1{fill:#3B82F6;}
</style>
<path class="st0" d="M470.3,127.3c-0.4-4-1.2-7.9-2.1-11.8c-0.6-2.3-2.5-4-4.8-4.3l-12.9-1.8c-2.1-5-4.7-9.8-7.9-14.3l5.4-11.9
	c1-2.1,0.5-4.7-1.1-6.4c-5.5-5.8-11.8-10.8-18.7-14.9c-2-1.2-4.6-1.1-6.5,0.4l-10.4,7.9c-5-2.1-10.3-3.6-15.7-4.5L391,53.5
	c-0.8-2.2-2.9-3.7-5.3-3.8c-4-0.1-8,0.1-12,0.5s-7.9,1.2-11.8,2.1c-2.3,0.6-4,2.5-4.3,4.8L356,70.2c-5,2.1-9.8,4.7-14.3,7.9
	l-11.9-5.4c-2.1-1-4.7-0.6-6.4,1.1c-2,1.9-3.8,3.8-5.6,5.9l-84.5-48.8c-1.8-1-4-1-5.8,0L62.4,126.2c-14.3,8.2-19.2,26.5-11,40.8
	c4,6.9,10.5,11.9,18.2,14c2.6,0.7,5.2,1,7.9,1c5.2,0,10.3-1.4,14.8-4l2-1.2v174.6c0,10.1,8.2,18.3,18.4,18.4h235.5
	c10.1,0,18.3-8.2,18.4-18.4V207.3c1.6,0.4,3.3,0.7,4.9,1l4.6,12.2c0.8,2.2,2.9,3.7,5.3,3.8c0.7,0,1.4,0,2.2,0c3.3,0,6.5-0.2,9.8-0.6
	c4-0.4,7.9-1.2,11.8-2.1c2.3-0.6,4-2.5,4.3-4.8l1.8-12.9c5-2.1,9.8-4.7,14.3-7.9l11.9,5.4c2.2,1,4.7,0.6,6.4-1.1
	c5.8-5.5,10.8-11.8,14.9-18.7c1.2-2,1.1-4.6-0.4-6.5l-7.9-10.4c2.1-5,3.6-10.3,4.5-15.7l12.2-4.6c2.2-0.8,3.7-2.9,3.8-5.3
	C470.9,135.3,470.7,131.3,470.3,127.3L470.3,127.3z M86.5,167.9c-8.8,5-20,2-25-6.8c-5-8.7-2-19.9,6.7-24.9l162.2-93.7l80.3,46.4
	c-0.8,1.2-1.5,2.3-2.2,3.5c-1.2,2-1.1,4.6,0.4,6.5l7.9,10.4c-2.1,5-3.6,10.3-4.5,15.7l-7.5,2.8l-71.5-41.3c-1.8-1-4-1-5.8,0
	L97.3,161.7c0,0-0.1,0-0.1,0.1L86.5,167.9z M348.1,358.2H112.6c-3.7,0-6.8-3-6.8-6.8V170.1l124.5-71.9l65.9,38c0,3.5,0.1,7,0.5,10.5
	c0.4,4,1.2,7.9,2.1,11.8c0.6,2.3,2.5,4,4.8,4.3l12.9,1.8c2.1,5,4.7,9.8,7.9,14.3l-5.4,11.9c-1,2.2-0.5,4.7,1.1,6.4
	c5.5,5.8,11.8,10.8,18.7,14.9c2,1.2,4.6,1.1,6.5-0.4l9.5-7.2v146.9C354.9,355.1,351.9,358.2,348.1,358.2L348.1,358.2z M447.6,139.5
	c-2,0.8-3.5,2.6-3.7,4.7c-0.8,6.5-2.6,12.9-5.5,18.9c-0.9,2-0.7,4.3,0.6,6l7.5,9.9c-2.4,3.6-5.1,7.1-8.1,10.2l-11.3-5.2
	c-2-0.9-4.3-0.6-6,0.7c-5.2,4.1-11,7.3-17.2,9.5c-2,0.7-3.5,2.5-3.8,4.7l-1.7,12.3c-2.2,0.4-4.3,0.8-6.5,1s-4.3,0.4-6.5,0.5L381,201
	c-0.8-2-2.6-3.5-4.7-3.7c-6.5-0.8-12.9-2.6-18.8-5.5c-2-0.9-4.3-0.7-6,0.6l-9.9,7.5c-3.6-2.4-7-5.1-10.2-8.1l5.2-11.3
	c0.9-2,0.6-4.3-0.7-6c-4.1-5.2-7.3-11-9.5-17.2c-0.7-2-2.5-3.5-4.7-3.8l-12.3-1.7c-0.4-2.1-0.7-4.3-1-6.5c-0.2-2.2-0.4-4.3-0.5-6.5
	l11.7-4.4c2-0.8,3.5-2.6,3.7-4.8c0.8-6.5,2.6-12.9,5.4-18.8c0.9-2,0.7-4.3-0.6-6l-7.6-9.9c2.4-3.6,5.1-7,8.1-10.2L340,90
	c2,0.9,4.3,0.6,6-0.7c5.2-4.1,11-7.3,17.2-9.5c2-0.7,3.5-2.5,3.8-4.7l1.7-12.3c2.2-0.4,4.3-0.8,6.4-1c2.2-0.2,4.4-0.4,6.5-0.5
	L386,73c0.8,2,2.6,3.5,4.8,3.7c6.5,0.8,12.9,2.6,18.8,5.4c2,0.9,4.3,0.7,6-0.6l9.9-7.6c3.6,2.4,7,5.1,10.2,8.1l-5.1,11.3
	c-0.9,2-0.6,4.3,0.7,6c4.1,5.2,7.3,11,9.5,17.2c0.7,2,2.5,3.5,4.7,3.8l12.4,1.7c0.4,2.2,0.8,4.3,1,6.4c0.2,2.2,0.4,4.4,0.5,6.5
	L447.6,139.5z M415.9,96.4c-22.4-17.9-55.1-14.2-73,8.2s-14.2,55.1,8.2,73c9.2,7.3,20.6,11.3,32.4,11.3c1.9,0,3.9-0.1,5.8-0.3
	c28.5-3.2,49-28.9,45.8-57.4C433.6,117.6,426.7,105,415.9,96.4L415.9,96.4z M415.1,162.2c-13.9,17.4-39.3,20.3-56.7,6.4
	c-17.4-13.9-20.3-39.3-6.4-56.7c6.7-8.4,16.4-13.8,27.1-14.9l0,0c1.5-0.2,3.1-0.3,4.6-0.3c22.3,0.1,40.3,18.2,40.3,40.5
	C423.9,146.3,420.8,155.1,415.1,162.2L415.1,162.2z"/>
<g>
	<g>
		<g>
			<path class="st1" d="M258.8,249.8l-8.2-8.2l21.6-21.6l2.8,2.8c1.8,1.8,4.9,1.5,6.2-0.8l16.8-27.9c0.9-1.6,0.7-3.5-0.6-4.8
				l-11.2-11.2c-1.3-1.3-3.3-1.5-4.8-0.6l-27.9,16.8c-2.2,1.3-2.6,4.4-0.8,6.2l2.8,2.8l-21.6,21.6l-8.2-8.2
				c2.9-10.7-0.1-22.4-8.2-30.5c-10.2-10.2-25.4-11.8-37.3-5.4c-1.1,0.6-1.9,1.7-2,2.9c-0.2,1.2,0.2,2.5,1.1,3.4l14.8,14.8
				c1.5,1.5,1.5,4,0,5.6c-1.5,1.5-4,1.5-5.6,0l-14.8-14.8c-0.9-0.9-2.1-1.3-3.4-1.1c-1.2,0.2-2.3,0.9-2.9,2
				c-6.4,11.9-4.8,27.1,5.4,37.3c8.1,8.1,19.8,11.1,30.5,8.2l2.6,2.6l-36.5,36.5c-7.7,7.7-7.7,20.2,0,27.9c7.7,7.7,20.2,7.7,27.9,0
				l36.5-36.5l2.6,2.6c-2.9,10.7,0.1,22.4,8.2,30.5c10.2,10.2,25.4,11.8,37.3,5.4c1.1-0.6,1.9-1.7,2-2.9c0.2-1.2-0.2-2.5-1.1-3.4
				L268,286.9c-1.5-1.5-1.5-4,0-5.6c1.5-1.5,4-1.5,5.6,0l14.8,14.8c0.9,0.9,2.1,1.3,3.4,1.1c1.2-0.2,2.3-0.9,2.9-2
				c6.4-11.9,4.8-27.1-5.4-37.3C281.2,249.9,269.6,246.9,258.8,249.8z M282.8,185.9l6.8,6.8l-12.6,21l-15.2-15.2L282.8,185.9z
				 M261,208.9l5.6,5.6L245,236l-5.6-5.6L261,208.9z M191.8,300.5c-4.6,4.6-12.1,4.6-16.8,0c-4.6-4.6-4.6-12.1,0-16.8l36.5-36.5
				l16.8,16.8L191.8,300.5z M289.8,286.4l-10.6-10.6c-4.6-4.6-12.1-4.6-16.8,0c-4.6,4.6-4.6,12.1,0,16.8l10.6,10.6
				c-8.1,2.2-16.7,0-22.8-6.1c-6.4-6.4-8.6-16.1-5.6-24.7c0.5-1.4,0.2-3-0.9-4.1l-36.5-36.5c-1.1-1.1-2.7-1.4-4.1-0.9
				c-8.6,3.1-18.3,0.9-24.7-5.6c-6.1-6.1-8.3-14.7-6.1-22.8l10.6,10.6c4.6,4.6,12.1,4.6,16.8,0c4.6-4.6,4.6-12.1,0-16.8l-10.6-10.6
				c8.1-2.2,16.7,0,22.8,6.1c6.4,6.4,8.6,16.1,5.6,24.7c-0.5,1.4-0.2,3,0.9,4.1l36.5,36.5c1.1,1.1,2.7,1.4,4.1,0.9
				c8.6-3.1,18.3-0.9,24.7,5.6C289.8,269.6,292,278.3,289.8,286.4z"/>
		</g>
	</g>
	<g>
		<g>
			<path class="st1" d="M215,261.3c-1.5-1.5-4-1.5-5.6,0l-24.1,24.1c-1.5,1.5-1.5,4,0,5.6c1.5,1.5,4,1.5,5.6,0l24.1-24.1
				C216.6,265.3,216.6,262.8,215,261.3z"/>
		</g>
	</g>
</g>
</svg>
