<?xml version="1.0" encoding="utf-8"?>
<!-- Generator: Adobe Illustrator 27.7.0, SVG Export Plug-In . SVG Version: 6.00 Build 0)  -->
<svg version="1.1" id="Layer_1" xmlns="http://www.w3.org/2000/svg" xmlns:xlink="http://www.w3.org/1999/xlink" x="0px" y="0px"
	 viewBox="0 0 361.5 70.5" style="enable-background:new 0 0 361.5 70.5;" xml:space="preserve">
<style type="text/css">
	.st0{fill:#1F2937;}
</style>
<g>
	<g>
		<path class="st0" d="M308.4,1.4h-57.2V20H276l-27.5,29.9V20V1.4h-1.9H226v29.9L201.9,1.4h-21.2V55L158.2,1h-22.4l-17.5,41.7
			c0.5-2.4,0.7-4.8,0.7-7.4v-0.2c0-9.9-3.5-18.2-10.5-24.9C101.4,3.4,92.6,0,82.2,0S63,3.4,55.9,10.2s-10.7,15.2-10.7,25v0.2
			c0,5.2,1,10,3,14.3H22.6V1.4H0V69h54.4V58.9c0.5,0.5,0.9,1,1.4,1.5c7.1,6.8,15.8,10.1,26.2,10.1s19.2-3.4,26.4-10.2
			c2-1.9,3.6-3.9,5-6l-6.2,14.8h24.2l3.5-9.1h23.7l3.6,9.1h18.6h5.9h16.5V37.9l25.1,31.2h17h3.1h60V50.5h-30.6l30.6-33.2L308.4,1.4
			L308.4,1.4z M96.2,35.5c0,4.1-1.3,7.6-3.8,10.5c-2.6,3-6.1,4.5-10.2,4.5c-4.2,0-7.6-1.5-10.3-4.6c-2.6-2.8-3.9-6.4-3.9-10.6v-0.2
			c0-4.1,1.3-7.6,3.8-10.5c2.6-3,6.1-4.5,10.2-4.5c4.2,0,7.6,1.5,10.3,4.6c2.6,2.8,3.9,6.4,3.9,10.6V35.5z M140.6,44l6.2-16.4
			L153,44H140.6z"/>
	</g>
	<circle class="st0" cx="322.9" cy="58.2" r="10.9"/>
	<g>
		<path class="st0" d="M358.4,65.6c-2.1,2.3-4.9,3.4-8.2,3.4h-0.1c-3.2,0-6-1.1-8.1-3.4c-2.2-2.2-3.2-5-3.2-8.2
			c0-4.5,1.9-7.8,5.7-9.9l3.5,6c-1.8,0.9-2.6,2.2-2.6,4c0,1.2,0.5,2.2,1.4,3c0.9,0.7,2,1.1,3.4,1.1h0.1c1.4,0,2.6-0.4,3.5-1.2
			c0.9-0.7,1.3-1.7,1.3-2.9c0-1.7-0.9-3.1-2.7-4.1l3.4-6c3.9,2.2,5.9,5.6,5.9,10.3C361.5,60.9,360.5,63.5,358.4,65.6z"/>
		<path class="st0" d="M358.2,46c-2.2,2.3-4.9,3.4-8,3.4h-0.1c-3.2,0-5.9-1.2-8.1-3.5s-3.3-5.1-3.3-8.5c0-3.3,1.1-6.2,3.3-8.5
			c2.2-2.3,4.9-3.4,8-3.4h0.1c3.2,0,5.9,1.1,8.1,3.4s3.3,5.2,3.3,8.5C361.5,40.9,360.4,43.8,358.2,46z M353.6,34.2
			c-0.9-0.8-2.1-1.2-3.4-1.2h-0.1c-1.4,0-2.5,0.4-3.4,1.2c-1,0.9-1.5,2-1.5,3.3c0,1.4,0.5,2.5,1.5,3.3c0.9,0.8,2.1,1.2,3.4,1.2h0.1
			c1.4,0,2.5-0.4,3.4-1.2c1-0.9,1.5-2,1.5-3.3S354.6,35.1,353.6,34.2z"/>
		<path class="st0" d="M339.2,26v-7.6l7.7-4.7L339.2,9V1.4H361v7.3h-10.8l7.8,5v0.1l-7.8,5H361V26H339.2z"/>
	</g>
</g>
</svg>
