<?xml version="1.0" encoding="utf-8"?>
<!-- Generator: Adobe Illustrator 27.9.0, SVG Export Plug-In . SVG Version: 6.00 Build 0)  -->
<svg version="1.1" id="Layer_1" xmlns="http://www.w3.org/2000/svg" xmlns:xlink="http://www.w3.org/1999/xlink" x="0px" y="0px"
	 viewBox="0 0 499.1 400" style="enable-background:new 0 0 499.1 400;" xml:space="preserve">
<style type="text/css">
	.st0{fill-rule:evenodd;clip-rule:evenodd;fill:#3B82F6;}
	.st1{fill-rule:evenodd;clip-rule:evenodd;fill:#18181B;}
</style>
<path class="st0" d="M379.2,242.8h-23c-2.9,0-5.3-2.4-5.3-5.3s2.4-5.3,5.3-5.3h23c4.3,0,7.8-3.5,7.8-7.8s-3.5-7.8-7.8-7.8h-12.7
	c-10.2,0-18.5-8.3-18.5-18.5s8.3-18.5,18.5-18.5h23c2.9,0,5.3,2.4,5.3,5.3c0,2.9-2.4,5.3-5.3,5.3h-23c-4.3,0-7.8,3.5-7.8,7.8
	s3.5,7.9,7.8,7.9h12.7c10.2,0,18.5,8.3,18.5,18.5C397.7,234.4,389.4,242.8,379.2,242.8L379.2,242.8z"/>
<path class="st0" d="M372.8,256.4c-2.9,0-5.3-2.4-5.3-5.3v-80c0-2.9,2.4-5.3,5.3-5.3s5.3,2.4,5.3,5.3v80
	C378.2,254,375.8,256.4,372.8,256.4z"/>
<path class="st1" d="M372.8,369.4h-265c-2.9,0-5.3-2.4-5.3-5.3V35.7c0-2.9,2.4-5.3,5.3-5.3h265.1c2.9,0,5.3,2.4,5.3,5.3V145
	c0,2.9-2.4,5.3-5.3,5.3s-5.3-2.4-5.3-5.3V41H113.1v317.7h254.4v-81.6c0-2.9,2.4-5.3,5.3-5.3s5.3,2.4,5.3,5.3V364
	C378.2,367,375.8,369.4,372.8,369.4L372.8,369.4z"/>
<path class="st1" d="M179.4,125.1h-30.6c-2.9,0-5.3-2.4-5.3-5.3V74.3c0-2.9,2.4-5.3,5.3-5.3s5.3,2.4,5.3,5.3v40.2h25.3
	c2.9,0,5.3,2.4,5.3,5.3C184.8,122.7,182.4,125.1,179.4,125.1L179.4,125.1z"/>
<path class="st1" d="M278.4,125.1c-2.9,0-5.3-2.4-5.3-5.3V91.1c0-6.4-5.2-11.5-11.5-11.5S250,84.8,250,91.1v28.6
	c0,2.9-2.4,5.3-5.3,5.3s-5.3-2.4-5.3-5.3V91.1c0-12.3,10-22.2,22.2-22.2c12.3,0,22.2,10,22.2,22.2v28.6
	C283.8,122.7,281.4,125.1,278.4,125.1L278.4,125.1z"/>
<path class="st1" d="M278.4,106.2h-33.8c-2.9,0-5.3-2.4-5.3-5.3s2.4-5.3,5.3-5.3h33.8c2.9,0,5.3,2.4,5.3,5.3
	C283.8,103.8,281.4,106.2,278.4,106.2L278.4,106.2z"/>
<path class="st1" d="M216.3,125.1h-10.9c-8,0-14.5-6.5-14.5-14.5V83.4c0-8,6.5-14.5,14.5-14.5h10.9c8,0,14.5,6.5,14.5,14.5v27.2
	C230.8,118.6,224.3,125.1,216.3,125.1z M205.3,79.6c-2.1,0-3.8,1.7-3.8,3.8v27.2c0,2.1,1.7,3.8,3.8,3.8h10.9c2.1,0,3.8-1.7,3.8-3.8
	V83.4c0-2.1-1.7-3.8-3.8-3.8H205.3z"/>
<path class="st1" d="M331.8,125.1c-1.7,0-3.3-0.8-4.3-2.2l-24.1-32.5v29.4c0,2.9-2.4,5.3-5.3,5.3s-5.3-2.4-5.3-5.3V74.3
	c0-2.3,1.5-4.3,3.7-5.1c2.2-0.7,4.6,0,6,1.9l24.1,32.5V74.3c0-2.9,2.4-5.3,5.3-5.3s5.3,2.4,5.3,5.3v45.5c0,2.3-1.5,4.3-3.7,5.1
	C332.9,125.1,332.3,125.1,331.8,125.1L331.8,125.1z"/>
<path class="st0" d="M278.1,332.8c-1.2,0-2.4-0.1-3.6-0.4c-4.1-1-7.3-3.5-9.3-7.4c-1.7-3.2-2.6-7.3-2.7-12.3c-0.6,0.7-1,1.1-1.1,1.2
	c-2.1,2.1-5.5,2.1-7.6,0s-2.1-5.5,0-7.5c0.1-0.1,8.4-8.7,13.8-22.6c1.2-4,2.2-6.7,2.3-6.9c1-2.7,3.9-4.1,6.7-3.2
	c2.7,0.9,4.3,3.8,3.5,6.5c-0.7,2.5-1.5,4.8-2.3,7.1c-0.8,2.8-1.8,6.3-2.6,10c-2.3,10.6-2.5,18.9-0.5,22.7c0.6,1.1,1.3,1.7,2.4,2
	c1.7,0.4,3.5-0.2,4.7-1.6c3.2-3.6,3.3-6.5,2.9-8.4c-0.6-1.4-0.9-2.6-0.9-2.8c-0.5-2.7,1.1-5.3,3.7-6.1c2.6-0.8,5.4,0.5,6.5,3
	c0.3,0.7,0.6,1.5,0.8,2.2c0.4,0.7,1,1.4,1.9,1.9c2,1,5.3,0.8,9.4-0.8c20.3-7.8,26.4,2.4,27.1,3.6c1.4,2.6,0.4,5.8-2.2,7.2
	c-2.5,1.3-5.6,0.4-7-1.9c-0.8-0.9-4.8-2.5-14,1.1c-6,2.3-11.3,2.8-15.7,1.3c-1,2.4-2.4,4.6-4.3,6.8
	C286.6,331,282.4,332.8,278.1,332.8L278.1,332.8z M323.5,318L323.5,318L323.5,318z M323.5,318L323.5,318L323.5,318z M323.5,318
	L323.5,318L323.5,318z"/>
<path class="st0" d="M309,341L309,341l-5.9-8.9c3.2-2.1,10.5-4.9,17.9-1.6c2.7,1.2,3.9,4.3,2.8,7c-1.2,2.7-4.3,3.9-7,2.8
	C312.9,338.6,309.1,340.9,309,341z"/>
<path class="st1" d="M307,211H147.4c-2.9,0-5.3-2.4-5.3-5.3c0-2.9,2.4-5.3,5.3-5.3H307c2.9,0,5.3,2.4,5.3,5.3S309.9,211,307,211z"/>
<path class="st1" d="M307,211H147.4c-2.9,0-5.3-2.4-5.3-5.3c0-2.9,2.4-5.3,5.3-5.3H307c2.9,0,5.3,2.4,5.3,5.3S309.9,211,307,211z"/>
<path class="st1" d="M307,186H147.4c-2.9,0-5.3-2.4-5.3-5.3c0-2.9,2.4-5.3,5.3-5.3H307c2.9,0,5.3,2.4,5.3,5.3S309.9,186,307,186z"/>
<path class="st1" d="M309.6,235.7H158.5c-2.9,0-5.3-2.4-5.3-5.3s2.4-5.3,5.3-5.3h151.2c2.9,0,5.3,2.4,5.3,5.3
	S312.6,235.7,309.6,235.7z"/>
<path class="st1" d="M306.9,260.7H190.6c-2.9,0-5.3-2.4-5.3-5.3s2.4-5.3,5.3-5.3h116.2c2.9,0,5.3,2.4,5.3,5.3
	C312.2,258.3,309.8,260.7,306.9,260.7z"/>
<path class="st1" d="M187.4,330.7h-40c-2.9,0-5.3-2.4-5.3-5.3s2.4-5.3,5.3-5.3h40c2.9,0,5.3,2.4,5.3,5.3
	C192.7,328.4,190.3,330.7,187.4,330.7z"/>
<path class="st0" d="M372.8,282.5c-19.1,0-37-7.4-50.5-20.9s-20.9-31.4-20.9-50.5s7.4-37,20.9-50.5s31.4-20.9,50.5-20.9
	s37,7.4,50.5,20.9s20.9,31.4,20.9,50.5s-7.4,37-20.9,50.5C409.9,275,391.9,282.5,372.8,282.5z M372.8,150.3
	c-33.5,0-60.7,27.2-60.7,60.7s27.2,60.7,60.7,60.7s60.7-27.2,60.7-60.7C433.6,177.5,406.3,150.3,372.8,150.3z"/>
</svg>
