<?xml version="1.0" encoding="utf-8"?>
<!-- Generator: Adobe Illustrator 27.9.0, SVG Export Plug-In . SVG Version: 6.00 Build 0)  -->
<svg version="1.1" id="Layer_1" xmlns="http://www.w3.org/2000/svg" xmlns:xlink="http://www.w3.org/1999/xlink" x="0px" y="0px"
	 viewBox="0 0 499.1 400" style="enable-background:new 0 0 499.1 400;" xml:space="preserve">
<style type="text/css">
	.st0{fill:#18181B;}
	.st1{fill:#3B82F6;}
</style>
<g>
	<path class="st0" d="M346.4,183.8c-5.3,0-10.7,0.4-16.2,1.3L273,116.7l31.1,12.7c2.9,1.2,6.4-0.3,7.7-3.2c1.2-2.9-0.3-6.4-3.2-7.7
		l-41.6-17l27-15c2.9-1.6,3.9-5.1,2.3-7.9c-1.6-2.8-5.2-3.8-7.9-2.3L266,88.7l23.2-52.1c0.7-1.4,0.7-3.1,0.1-4.6
		c-0.6-1.5-1.7-2.6-3.1-3.2c-1.6-0.7-3.3-0.7-4.8,0C261.7,38.1,239,43,215.8,43c-23.3,0-46-4.9-65.6-14.1c-3-1.3-6.5-0.1-7.8,2.8
		c-0.7,1.5-0.7,3.3,0,4.8l28.8,64.8l-81.4,97.5c-18.5,22.2-22.3,51.1-10,77.4c12.2,26.2,36.9,41.9,65.9,41.9h106.7
		c14.5,39.3,52.1,65.7,94,65.7c55.1,0,100-44.9,100-100C446.4,228.7,401.5,183.8,346.4,183.8z M434.7,283.9
		c0,48.7-39.6,88.3-88.3,88.3c-48.7-0.1-88.3-39.7-88.3-88.3c0-48.7,39.6-88.3,88.3-88.3C395.1,195.6,434.7,235.2,434.7,283.9z
		 M181.9,96.5l-23-51.4c18.3,6.4,37.4,9.6,56.8,9.6c19.3,0.1,38.4-3.1,56.8-9.6l-22.8,51.4H181.9z M180.8,108.2h70l66.7,79.9
		c-42,12.7-71.1,51.7-71.1,95.7c0,7.7,0.9,15.3,2.6,22.6H144.2v0.1c-23.7-0.5-43.7-13.6-53.7-35.1c-10.3-22-7.1-46.3,8.4-65
		L180.8,108.2z"/>
	<path class="st0" d="M313.7,108.9c0.9,0.7,2,1,3.3,1h21l0,58.3c0.1,3.2,2.7,5.7,5.9,5.7h29.7c3.3,0,5.8-2.5,5.8-5.8v-58.2h21
		c3.3,0,5.8-2.5,5.8-5.8c0-1.1-0.3-2.1-0.9-3.2l-41.7-63.2c-1.7-2.7-5.4-3.4-8-1.7c-0.7,0.4-1.3,1-1.7,1.7l-41.7,63.2
		c-0.8,1.3-1.1,2.9-0.9,4.4C311.6,106.8,312.5,108.1,313.7,108.9z M367.8,103.9v58.2h-18V104c0-3.3-2.5-5.8-5.8-5.8l-16-0.1
		l30.8-46.8l30.8,46.8h-16C370.3,98.1,367.8,100.6,367.8,103.9z"/>
</g>
<path class="st1" d="M185.3,200.7c-3.5-7-3.8-15-0.7-22c3.5-8.1,11.1-14.2,21.3-17.2c1.5-0.5,3.1-0.8,4.7-1.1v-3.7
	c0-4,3.2-7.2,7.2-7.2s7.2,3.2,7.2,7.2v3.6c9.1,1.5,17.3,5.8,22.7,12.5c2.5,3.1,2,7.6-1.1,10.1s-7.6,2-10.1-1.1
	c-5.3-6.6-16.7-9.4-26.5-6.5c-6,1.8-10.4,5-12.1,9.1c-1.4,3.1-1.2,6.6,0.4,9.8c3.7,7.5,9.2,8.5,19.3,9.8c9.5,1.2,21.4,2.7,29.9,14.4
	c5.5,7.5,7,16.7,4.1,25.1c-3.2,9.5-11.4,16.6-23.1,20.1c-1.2,0.4-2.4,0.6-3.6,0.9v3.9c0,4-3.2,7.2-7.2,7.2s-7.2-3.2-7.2-7.2V265
	c-10.3-1.2-19.8-5.9-25.8-13.4c-2.5-3.1-2-7.6,1.1-10.1s7.6-2,10.1,1.1c5.8,7.1,18,10.2,28.6,7.1c7-2.1,11.8-5.9,13.5-10.9
	c1.3-3.9,0.6-8.3-2.1-12c-4.7-6.4-10.7-7.4-20.1-8.7C205.4,217,192.6,215.4,185.3,200.7L185.3,200.7z"/>
<path class="st1" d="M313.4,272.3c-3.5-7-3.8-15-0.7-22c3.5-8.1,11.1-14.2,21.3-17.2c1.5-0.5,3.1-0.8,4.7-1.1v-3.7
	c0-4,3.2-7.2,7.2-7.2s7.2,3.2,7.2,7.2v3.6c9.1,1.5,17.3,5.8,22.7,12.5c2.5,3.1,2,7.6-1.1,10.1s-7.6,2-10.1-1.1
	c-5.3-6.6-16.7-9.4-26.5-6.5c-6,1.8-10.4,5-12.1,9.1c-1.4,3.1-1.2,6.6,0.4,9.8c3.7,7.5,9.2,8.5,19.3,9.8c9.5,1.2,21.4,2.7,29.9,14.4
	c5.5,7.5,7,16.7,4.1,25.1c-3.2,9.5-11.4,16.6-23.1,20.1c-1.2,0.4-2.4,0.6-3.6,0.9v3.9c0,4-3.2,7.2-7.2,7.2s-7.2-3.2-7.2-7.2v-3.3
	c-10.3-1.2-19.8-5.9-25.8-13.4c-2.5-3.1-2-7.6,1.1-10.1c3.1-2.5,7.6-2,10.1,1.1c5.8,7.1,18,10.2,28.6,7.1c7-2.1,11.8-5.9,13.5-10.9
	c1.3-3.9,0.6-8.3-2.1-12c-4.7-6.4-10.7-7.4-20.1-8.7C333.5,288.6,320.7,287,313.4,272.3L313.4,272.3z"/>
</svg>
