<?xml version="1.0" encoding="utf-8"?>
<!-- Generator: Adobe Illustrator 27.9.0, SVG Export Plug-In . SVG Version: 6.00 Build 0)  -->
<svg version="1.1" id="Layer_1" xmlns="http://www.w3.org/2000/svg" xmlns:xlink="http://www.w3.org/1999/xlink" x="0px" y="0px"
	 viewBox="0 0 499.1 400" style="enable-background:new 0 0 499.1 400;" xml:space="preserve">
<style type="text/css">
	.st0{fill:#18181B;}
	.st1{fill:#3B82F6;}
</style>
<path class="st0" d="M375.7,369.5H123c-13.8,0-24.9-11.2-24.9-24.9V171.7c0-13.8,11.2-24.9,24.9-24.9h73.8c8.7,0,17.1,3,23.9,8.4
	l31.7,25.3c5,4,11.3,6.2,17.7,6.2h105.7c13.8,0,24.9,11.2,24.9,24.9v133C400.7,358.4,389.5,369.5,375.7,369.5z M123,156.7
	c-8.3,0-15,6.7-15,15v172.9c0,8.3,6.7,15,15,15h252.7c8.3,0,15-6.7,15-15v-133c0-8.3-6.7-15-15-15H270c-8.7,0-17.1-3-23.9-8.4
	l-31.7-25.3c-5-4-11.3-6.2-17.7-6.2L123,156.7L123,156.7z"/>
<polygon class="st0" points="357.4,191.6 347.5,191.6 347.5,39.7 131.3,39.7 131.3,151.7 121.3,151.7 121.3,29.7 357.4,29.7 "/>
<rect x="229.4" y="64.3" class="st0" width="99.8" height="10"/>
<rect x="229.4" y="86.9" class="st0" width="73.2" height="10"/>
<rect x="229.4" y="109.5" class="st0" width="99.8" height="10"/>
<rect x="229.4" y="132.1" class="st0" width="73.2" height="10"/>
<polygon class="st0" points="377.4,191.6 367.4,191.6 367.4,53 352.4,53 352.4,43 377.4,43 "/>
<path class="st0" d="M249.4,349.6c-39.4,0-71.5-32.1-71.5-71.5s32.1-71.5,71.5-71.5s71.5,32.1,71.5,71.5S288.8,349.6,249.4,349.6z
	 M249.4,216.6c-33.9,0-61.5,27.6-61.5,61.5s27.6,61.5,61.5,61.5s61.5-27.6,61.5-61.5S283.3,216.6,249.4,216.6z"/>
<path class="st1" d="M267.6,323H231v-26.6h-26.6v-36.6H231v-26.6h36.6v26.6h26.6v36.6h-26.6V323z M241,313h16.6v-26.6h26.6v-16.6
	h-26.6v-26.6H241v26.6h-26.6v16.6H241V313z"/>
<path class="st1" d="M190.2,136.3c-6.2,0-12.3-2.6-16.6-7.7l-21.4-25.5c-7.7-9.1-6.5-22.8,2.7-30.5l0,0c9.1-7.7,22.8-6.5,30.5,2.7
	l21.4,25.5c7.7,9.1,6.5,22.8-2.7,30.5C200,134.6,195.1,136.3,190.2,136.3z M161.3,80.3L161.3,80.3c-4.9,4.1-5.6,11.5-1.4,16.4
	l21.4,25.5c4.1,4.9,11.5,5.6,16.4,1.4c4.9-4.1,5.6-11.5,1.4-16.4l-21.4-25.5C173.6,76.8,166.2,76.2,161.3,80.3z"/>
<rect x="162.8" y="97" transform="matrix(0.766 -0.6428 0.6428 0.766 -23.5757 139.2401)" class="st1" width="33.3" height="10"/>
</svg>
