<?xml version="1.0" encoding="utf-8"?>
<!-- Generator: Adobe Illustrator 27.9.0, SVG Export Plug-In . SVG Version: 6.00 Build 0)  -->
<svg version="1.1" id="Layer_1" xmlns="http://www.w3.org/2000/svg" xmlns:xlink="http://www.w3.org/1999/xlink" x="0px" y="0px"
	 viewBox="0 0 499.1 400" style="enable-background:new 0 0 499.1 400;" xml:space="preserve">
<style type="text/css">
	.st0{fill:#231F20;}
	.st1{fill:#3B82F6;}
</style>
<path class="st0" d="M133.1,305c-12.8,0-23.2,10.4-23.2,23.2s10.4,23.2,23.2,23.2s23.2-10.4,23.2-23.2S145.9,305,133.1,305z
	 M133.1,340.8c-6.9,0-12.6-5.7-12.6-12.6s5.7-12.6,12.6-12.6c7,0,12.6,5.7,12.6,12.6S140,340.8,133.1,340.8z"/>
<path class="st0" d="M389.5,305c-12.8,0-23.2,10.4-23.2,23.2s10.4,23.2,23.2,23.2s23.2-10.4,23.2-23.2S402.3,305,389.5,305z
	 M389.5,340.8c-7,0-12.6-5.7-12.6-12.6s5.7-12.6,12.6-12.6c7,0,12.6,5.7,12.6,12.6S396.4,340.8,389.5,340.8z"/>
<path class="st1" d="M349,237.9h79.8c1.9,0,3.7-1,4.6-2.7s0.9-3.7-0.1-5.4l-35.9-57.9c-1-1.6-2.7-2.5-4.5-2.5H349
	c-2.9,0-5.3,2.4-5.3,5.3v57.9C343.7,235.5,346.1,237.9,349,237.9z M354.3,180h35.6l29.3,47.3h-64.9V180z"/>
<path class="st0" d="M377.6,253.2H355c-2.9,0-5.3,2.4-5.3,5.3c0,2.9,2.4,5.3,5.3,5.3h22.7c2.9,0,5.3-2.4,5.3-5.3
	S380.6,253.2,377.6,253.2z"/>
<path class="st0" d="M475.2,359.5h-58c6.6-5.8,11.3-13.6,13.2-22.5h32c2.9,0,5.3-2.4,5.3-5.3v-43v-36.3v-13.1c0-1-0.3-2-0.8-2.9
	l-55.1-86c-1-1.5-2.7-2.4-4.5-2.4h-83.1V81.9c0-16.1-13.1-29.2-29.2-29.2h-59.4c-2.9,0-5.3,2.4-5.3,5.3c0,2.9,2.4,5.3,5.3,5.3H295
	c10.3,0,18.6,8.3,18.6,18.6v240.9h-59.8h-79.2c-0.1,0-0.1,0-0.2,0c-2.6-20.6-20.2-36.6-41.5-36.6s-38.9,16-41.5,36.6H65.2
	c-10.3,0-18.6-8.3-18.6-18.6V81.9c0-10.3,8.3-18.6,18.6-18.6h60.7c2.9,0,5.3-2.4,5.3-5.3s-2.4-5.3-5.3-5.3H65.2
	C49.1,52.7,36,65.8,36,81.9v222.3c0,16.1,13.1,29.2,29.2,29.2h26.3c1.3,10.3,6.4,19.4,13.8,26H27.8c-2.9,0-5.3,2.4-5.3,5.3
	s2.4,5.3,5.3,5.3h226.1c2.9,0,5.3-2.4,5.3-5.3s-2.4-5.3-5.3-5.3h-93.1c7.4-6.6,12.5-15.7,13.8-26c0.1,0,0.1,0,0.2,0H254h65h29
	c1.3,10.3,6.4,19.4,13.8,26H301c-2.9,0-5.3,2.4-5.3,5.3s2.4,5.3,5.3,5.3h174.3c2.9,0,5.3-2.4,5.3-5.3S478.1,359.5,475.2,359.5
	L475.2,359.5z M133.1,359.5c-17.3,0-31.3-14-31.3-31.3s14-31.3,31.3-31.3s31.3,14,31.3,31.3S150.3,359.5,133.1,359.5z M457.2,283.4
	h-15.8v-25.7h15.8V283.4z M324.3,158.6h80.2l52.7,82.2v6.2H436c-2.9,0-5.3,2.4-5.3,5.3v36.3c0,2.9,2.4,5.3,5.3,5.3h21.1v32.4h-25.9
	c-1-22.3-19.3-40.1-41.8-40.1c-21.3,0-38.9,16-41.5,36.6h-23.7L324.3,158.6L324.3,158.6z M358.2,328.2c0-17.3,14-31.3,31.3-31.3
	s31.3,14,31.3,31.3s-14,31.3-31.3,31.3S358.2,345.4,358.2,328.2z"/>
<path class="st1" d="M283.9,362.7c-0.1-0.3-0.3-0.6-0.5-0.9s-0.4-0.6-0.7-0.8c-0.2-0.2-0.5-0.5-0.8-0.7s-0.6-0.3-0.9-0.5
	c-0.3-0.1-0.7-0.2-1-0.3c-1.7-0.3-3.5,0.2-4.8,1.5c-0.2,0.2-0.5,0.5-0.7,0.8s-0.3,0.6-0.5,0.9c-0.1,0.3-0.2,0.7-0.3,1
	c-0.1,0.3-0.1,0.7-0.1,1c0,1.4,0.6,2.8,1.6,3.8s2.4,1.5,3.7,1.5c0.3,0,0.7,0,1-0.1s0.7-0.2,1-0.3c0.3-0.1,0.6-0.3,0.9-0.5
	s0.6-0.4,0.8-0.7c1-1,1.5-2.4,1.5-3.8c0-0.3,0-0.7-0.1-1C284.2,363.4,284,363.1,283.9,362.7z"/>
<path class="st0" d="M68.2,154.6l6.6,6.6c2.4,2.4,5.6,3.7,9,3.7c3.3,0,6.5-1.3,8.9-3.6v81.9H72.1c-2.9,0-5.3,2.4-5.3,5.3
	s2.4,5.3,5.3,5.3h78.2H210h78.6c2.9,0,5.3-2.4,5.3-5.3s-2.4-5.3-5.3-5.3h-21v-81.9c5,4.8,13,4.8,17.9-0.1l6.6-6.6c5-5,5-13.1,0-18
	l-103-103c-5-5-13.1-5-18,0l-102.9,103C63.2,141.5,63.2,149.6,68.2,154.6z M155.6,243.3v-73.9c0-2,1.6-3.6,3.6-3.6h41.9
	c2,0,3.6,1.6,3.6,3.6v73.9L155.6,243.3L155.6,243.3z M75.7,144.1l102.9-103c0.5-0.5,1.2-0.6,1.5-0.6s1,0.1,1.5,0.6L284.5,144
	c0.8,0.8,0.8,2.2,0,3l-6.6,6.6c-0.5,0.5-1.2,0.6-1.5,0.6s-1-0.1-1.5-0.6L189.1,68c-2.4-2.4-5.6-3.7-9-3.7s-6.6,1.3-9,3.7l-38.9,38.9
	c-2.1,2.1-2.1,5.4,0,7.5s5.4,2.1,7.5,0l38.9-38.9c0.8-0.8,2.2-0.8,3,0l75.3,75.3v92.5h-41.6v-73.9c0-7.8-6.4-14.2-14.2-14.2h-41.9
	c-7.8,0-14.2,6.4-14.2,14.2v73.9h-41.6v-92.5l11.2-11.2c2.1-2.1,2.1-5.4,0-7.5s-5.4-2.1-7.5,0l-21.7,21.7c-0.8,0.8-2.2,0.8-3,0
	l-6.6-6.6C74.8,146.2,74.8,144.9,75.7,144.1L75.7,144.1z"/>
<g>
	<path class="st1" d="M118.8,124.9c0.1,0.3,0.3,0.6,0.5,0.9s0.4,0.6,0.7,0.8c0.3,0.2,0.5,0.5,0.8,0.7s0.6,0.3,0.9,0.5
		c0.3,0.1,0.7,0.2,1,0.3s0.7,0.1,1,0.1s0.7,0,1-0.1s0.7-0.2,1-0.3c0.3-0.1,0.6-0.3,0.9-0.5s0.6-0.4,0.8-0.7c0.2-0.3,0.5-0.5,0.7-0.8
		s0.4-0.6,0.5-0.9s0.2-0.7,0.3-1s0.1-0.7,0.1-1s-0.1-0.7-0.1-1c-0.1-0.3-0.2-0.7-0.3-1s-0.3-0.6-0.5-0.9s-0.4-0.6-0.7-0.8
		c-0.2-0.2-0.5-0.5-0.8-0.7s-0.6-0.3-0.9-0.5c-0.3-0.1-0.6-0.2-1-0.3c-0.7-0.1-1.4-0.1-2.1,0c-0.3,0.1-0.7,0.2-1,0.3
		c-0.3,0.1-0.6,0.3-0.9,0.5s-0.6,0.4-0.8,0.7c-0.2,0.2-0.5,0.5-0.7,0.8s-0.3,0.6-0.5,0.9c-0.1,0.3-0.2,0.6-0.3,1
		c-0.1,0.3-0.1,0.7-0.1,1s0,0.7,0.1,1C118.6,124.2,118.7,124.5,118.8,124.9z"/>
	<path class="st1" d="M170.9,195.5c-2.9,0-5.3,2.4-5.3,5.3V220c0,2.9,2.4,5.3,5.3,5.3c2.9,0,5.3-2.4,5.3-5.3v-19.2
		C176.2,197.9,173.8,195.5,170.9,195.5z"/>
	<path class="st1" d="M123.7,221c2.9,0,5.3-2.4,5.3-5.3v-41.9c0-2.9-2.4-5.3-5.3-5.3s-5.3,2.4-5.3,5.3v41.9
		C118.4,218.7,120.8,221,123.7,221z"/>
	<path class="st1" d="M235.7,221c2.9,0,5.3-2.4,5.3-5.3v-41.9c0-2.9-2.4-5.3-5.3-5.3c-2.9,0-5.3,2.4-5.3,5.3v41.9
		C230.4,218.7,232.8,221,235.7,221z"/>
</g>
</svg>
