<?xml version="1.0" encoding="utf-8"?>
<!-- Generator: Adobe Illustrator 27.9.0, SVG Export Plug-In . SVG Version: 6.00 Build 0)  -->
<svg version="1.1" id="Layer_1" xmlns="http://www.w3.org/2000/svg" xmlns:xlink="http://www.w3.org/1999/xlink" x="0px" y="0px"
	 viewBox="0 0 499.1 400" style="enable-background:new 0 0 499.1 400;" xml:space="preserve">
<style type="text/css">
	.st0{fill:#3B82F6;}
	.st1{fill:#18181B;}
</style>
<g>
	<path class="st0" d="M328.7,48.3c-4.9,0-8.9,4-8.9,8.9v63.2c0,1.8,0.5,3.5,1.5,5c0.2,0.2,0.3,0.5,0.5,0.7c0.7,0.9,1.6,1.6,2.6,2.2
		c1.3,0.7,2.7,1.1,4.2,1.1h63.2c5,0,9-3.9,9-8.8c0-4.9-4-8.9-8.9-8.9h-41.9L414,47.7c1.7-1.7,2.6-3.9,2.6-6.2s-0.9-4.6-2.6-6.2l0,0
		c-1.7-1.7-3.9-2.6-6.3-2.6c0,0,0,0-0.1,0c-2.4,0-4.6,0.9-6.2,2.6l-63.8,63.8V57.2C337.6,52.3,333.6,48.3,328.7,48.3z"/>
</g>
<path class="st1" d="M249.7,33.6c4.4,0,7.9,3.5,7.9,7.9s-3.5,7.9-7.9,7.9c-40.1,0-77.9,15.6-106.2,44c-28.4,28.4-44,66.1-44,106.2
	c0,82.8,67.4,150.2,150.2,150.2s150.2-67.4,150.2-150.2c0-4.4,3.5-7.9,7.9-7.9c4.4,0,7.9,3.5,7.9,7.9
	c-0.1,44.3-17.4,85.9-48.7,117.2c-31.3,31.3-73,48.6-117.3,48.6c-44.3,0-86-17.3-117.3-48.6c-31.3-31.3-48.6-73-48.6-117.3
	c0-44.3,17.2-86,48.6-117.3C163.7,50.9,205.4,33.6,249.7,33.6"/>
<path class="st0" d="M204.9,182.1c-4.9-9.7-5.3-20.8-1-30.5c4.9-11.2,15.4-19.7,29.5-23.9c2.1-0.7,4.3-1.1,6.5-1.5v-5.1
	c0-5.5,4.4-10,10-10c5.5,0,10,4.4,10,10v5c12.6,2.1,24,8,31.5,17.3c3.5,4.3,2.8,10.5-1.5,14c-4.3,3.5-10.5,2.8-14-1.5
	c-7.4-9.2-23.2-13-36.8-9c-8.3,2.5-14.4,6.9-16.8,12.6c-1.9,4.3-1.7,9.2,0.6,13.6c5.1,10.4,12.8,11.8,26.8,13.6
	c13.2,1.7,29.7,3.7,41.5,20c7.6,10.4,9.7,23.2,5.7,34.8c-4.4,13.2-15.8,23-32,27.9c-1.7,0.6-3.3,0.8-5,1.2v5.4c0,5.5-4.4,10-10,10
	c-5.5,0-10-4.4-10-10v-4.6c-14.3-1.7-27.5-8.2-35.8-18.6c-3.5-4.3-2.8-10.5,1.5-14c4.3-3.5,10.5-2.8,14,1.5c8,9.8,25,14.1,39.7,9.8
	c9.7-2.9,16.4-8.2,18.7-15.1c1.8-5.4,0.8-11.5-2.9-16.6c-6.5-8.9-14.8-10.3-27.9-12.1C232.8,204.7,215,202.5,204.9,182.1
	L204.9,182.1z"/>
</svg>
