<?xml version="1.0" encoding="utf-8"?>
<!-- Generator: Adobe Illustrator 27.9.0, SVG Export Plug-In . SVG Version: 6.00 Build 0)  -->
<svg version="1.1" id="Layer_1" xmlns="http://www.w3.org/2000/svg" xmlns:xlink="http://www.w3.org/1999/xlink" x="0px" y="0px"
	 viewBox="0 0 499.1 400" style="enable-background:new 0 0 499.1 400;" xml:space="preserve">
<style type="text/css">
	.st0{fill:#18181B;}
	.st1{fill:#3B82F6;}
</style>
<path class="st0" d="M467,216.5L329.2,173c10.9-15.8,17.2-34.9,17.2-55.2c0-53.7-43.6-97.3-97.3-97.3s-97.3,43.6-97.3,97.3
	c0,20.3,6.2,39.3,17.1,55.2L31.2,216.5c-3,0.9-5,3.7-5,6.9c0,3.1,2,5.9,5,6.9l71.1,22.5v59.9c0,3.1,2,5.9,5,6.9L247,363.2
	c0.7,0.2,1.4,0.3,2.2,0.3c0.7,0,1.4-0.1,2.1-0.3l98.5-30.9v40.2l-8.4,10.9c-2.4,3.1-1.9,7.7,1.3,10.1c3.1,2.4,7.7,1.8,10.1-1.3
	l4.2-5.5l4.2,5.5c1.4,1.8,3.5,2.8,5.7,2.8c1.5,0,3.1-0.5,4.4-1.5c3.1-2.4,3.7-6.9,1.3-10.1l-8.4-10.9v-44.7l26.7-8.4
	c3-0.9,5-3.7,5-6.9v-59.9l71.2-22.5c3-0.9,5-3.7,5-6.9C472,220.2,470,217.5,467,216.5L467,216.5z M249.1,35
	c45.7,0,82.9,37.2,82.9,82.9c0,35.8-22.8,67.4-56.7,78.7c-0.3,0.1-0.5,0.2-0.8,0.4H224h-0.1c-34.5-11-57.7-42.8-57.7-79
	C166.2,72.2,203.4,35,249.1,35L249.1,35z M381.5,307.3l-17.3,5.4v-50.1l17.3-5.5V307.3z M357,249.9l-105.7-33.4
	c-3.8-1.2-7.8,0.9-9,4.7s0.9,7.8,4.7,9l102.8,32.5v54.6l-100.7,31.5l-132.4-41.5v-50.1l130.2,41.1c0.7,0.2,1.4,0.3,2.2,0.3
	c0.7,0,1.5-0.1,2.2-0.3l68.6-21.7c3.8-1.2,5.9-5.2,4.7-9c-1.2-3.8-5.2-5.9-9-4.7l-66.4,21l-192-60.5L178.7,185
	c4.2,4.3,8.7,8.3,13.6,11.9h-31.4c-4,0-7.2,3.2-7.2,7.2s3.2,7.2,7.2,7.2h176.5c4,0,7.2-3.2,7.2-7.2s-3.2-7.2-7.2-7.2h-31.5
	c5-3.5,9.5-7.5,13.7-11.9L441,223.4L357,249.9z"/>
<path class="st1" d="M216.7,106c-3.5-7-3.8-15-0.7-22c3.5-8.1,11.1-14.2,21.3-17.2c1.5-0.5,3.1-0.8,4.7-1.1V62c0-4,3.2-7.2,7.2-7.2
	s7.2,3.2,7.2,7.2v3.6c9.1,1.5,17.3,5.8,22.7,12.5c2.5,3.1,2,7.6-1.1,10.1s-7.6,2-10.1-1.1c-5.3-6.6-16.7-9.4-26.5-6.5
	c-6,1.8-10.4,5-12.1,9.1c-1.4,3.1-1.2,6.6,0.4,9.8c3.7,7.5,9.2,8.5,19.3,9.8c9.5,1.2,21.4,2.7,29.9,14.4c5.5,7.5,7,16.7,4.1,25.1
	c-3.2,9.5-11.4,16.6-23.1,20.1c-1.2,0.4-2.4,0.6-3.6,0.9v3.9c0,4-3.2,7.2-7.2,7.2s-7.2-3.2-7.2-7.2v-3.3
	c-10.3-1.2-19.8-5.9-25.8-13.4c-2.5-3.1-2-7.6,1.1-10.1s7.6-2,10.1,1.1c5.8,7.1,18,10.2,28.6,7.1c7-2.1,11.8-5.9,13.5-10.9
	c1.3-3.9,0.6-8.3-2.1-12c-4.7-6.4-10.7-7.4-20.1-8.7C236.8,122.3,224,120.7,216.7,106L216.7,106z"/>
</svg>
